<?xml version="1.0" encoding="utf-8"?>
<!-- Generator: Adobe Illustrator 22.1.0, SVG Export Plug-In . SVG Version: 6.00 Build 0)  -->
<svg version="1.1" id="Pagina_inicial_Escritorio" xmlns="http://www.w3.org/2000/svg" xmlns:xlink="http://www.w3.org/1999/xlink"
	 x="0px" y="0px" viewBox="0 0 346.6 316" style="enable-background:new 0 0 346.6 316;" xml:space="preserve">
<style type="text/css">
	.st0{fill:#103754;}
	.st1{fill:none;}
	.st2{fill:#C1E2DE;}
	.st3{fill:#0E303F;}
	.st4{fill:#FFFFFF;}
	.st5{fill:#B7C9CB;}
	.st6{fill:#353535;}
	.st7{fill:#11A2A2;}
</style>
<title>mundo</title>
<path class="st0" d="M203,107"/>
<path class="st0" d="M291.6,175"/>
<line class="st1" x1="203" y1="106.9" x2="203" y2="106.9"/>
<path class="st2" d="M197.4,37.1c-0.1-0.1-0.8,0.3-0.5,0.6c0.2,0.1,0.4,0,0.5-0.2C197.6,37.4,197.5,37.2,197.4,37.1z"/>
<path class="st2" d="M214.9,89.3c-0.1-0.1-0.8,0.3-0.6,0.6S215.2,89.6,214.9,89.3z"/>
<path class="st3" d="M214.2,44h-87.8c-10.6,0-19.2,8.6-19.2,19.2v210.5c0,10.6,8.6,19.2,19.2,19.2h87.8c10.6,0,19.2-8.6,19.2-19.2
	V63.4c0.1-10.5-8.3-19.2-18.9-19.3c0,0,0,0,0,0L214.2,44L214.2,44z"/>
<path class="st4" d="M153.7,59h33.2c0.9,0,1.7,0.8,1.7,1.7c0.1,0.9-0.6,1.6-1.5,1.7c0,0,0,0,0,0h-33.4c-0.9,0-1.7-0.7-1.7-1.7
	C152,59.7,152.8,59,153.7,59C153.7,59,153.7,59,153.7,59z"/>
<path class="st4" d="M170.2,278.8c-6.1,0-11.1-5-11.1-11.1s5-11.1,11.1-11.1c6.1,0,11.1,5,11.1,11.1
	C181.3,273.8,176.4,278.7,170.2,278.8z"/>
<rect x="115.4" y="81.9" class="st4" width="109.6" height="162.3"/>
<path class="st0" d="M170.2,260c-4.2,0.1-7.6,3.5-7.7,7.7c0,4.3,3.4,7.7,7.7,7.7s7.7-3.4,7.7-7.7C177.9,263.4,174.5,260,170.2,260
	L170.2,260z"/>
<rect x="148.3" y="98" class="st5" width="70.1" height="6.9"/>
<path class="st5" d="M139.9,101.5c0,5-4.1,9.1-9.1,9.1c-5,0-9.1-4.1-9.1-9.1c0-5,4.1-9.1,9.1-9.1C135.9,92.4,139.9,96.4,139.9,101.5
	C139.9,101.5,139.9,101.5,139.9,101.5z"/>
<rect x="121.7" y="201.3" class="st5" width="97" height="2.9"/>
<rect x="121.7" y="211.2" class="st5" width="97" height="2.9"/>
<rect x="121.7" y="221" class="st5" width="97" height="2.9"/>
<rect x="121.7" y="230.7" class="st5" width="70.4" height="2.9"/>
<rect x="121.7" y="182.4" class="st5" width="64.5" height="6.9"/>
<path class="st4" d="M148.7,148.5v-12.6h2.3l1.9,5l1.4,3.6l0,0c-0.1-1.4-0.2-3.5-0.2-5.8v-2.8h2.2v12.6h-2.4l-1.9-4.8
	c-0.5-1.2-0.9-2.4-1.2-3.7l0,0c0,1.2,0.1,3.2,0.1,5.8v2.8h-2.2L148.7,148.5z"/>
<path class="st4" d="M163.7,143h-2.8v3.4h3.3v2.2h-5.7v-12.7h5.5v2.2h-3.1v3h2.8V143L163.7,143L163.7,143z"/>
<path class="st4" d="M167.1,138.2h-2.3v-2.3h6.9v2.3h-2.3v10.3h-2.5v-10.3h0.1H167.1z"/>
<path class="st4" d="M174.8,148.5l-2.2-12.6h2.5l0.6,5c0.1,1.5,0.2,2.8,0.5,4.4l0,0c0.1-1.6,0.5-3,0.7-4.4l0.9-5h1.9l0.8,5
	c0.2,1.5,0.5,2.8,0.6,4.4l0,0l0.5-4.4l0.6-5h2.4l-2.3,12.6h-2.2l-0.8-4.1c-0.2-1.1-0.3-2.6-0.6-4.1l0,0c-0.2,1.5-0.5,3-0.7,4.2
	l-0.8,4.1L174.8,148.5L174.8,148.5z"/>
<path class="st4" d="M193.6,142.1c0,4.8-1.7,6.7-4.1,6.7s-4-3.1-4-6.5s1.4-6.5,4.2-6.5S193.6,139.1,193.6,142.1z M188,142.3
	c0,2.8,0.6,4.3,1.6,4.3s1.5-1.8,1.5-4.4s-0.3-4.2-1.5-4.2s-1.5,1.6-1.5,4.3L188,142.3z"/>
<path class="st4" d="M195.1,136.2l2.7-0.2c1.2-0.1,2.4,0.2,3.4,0.9c0.7,0.7,1.1,1.6,1,2.6c0.1,1.3-0.7,2.6-1.9,3.2l0,0
	c0.9,0.3,1.2,1.1,1.6,2.5c0.2,1.2,0.4,2.3,0.8,3.4h-2.6c-0.3-1-0.5-2.1-0.6-3.1c-0.2-1.6-0.6-2-1.5-2h-0.3v5h-2.5L195.1,136.2
	L195.1,136.2L195.1,136.2z M197.6,141.7h0.5c0.9,0,1.7-0.8,1.7-1.7v-0.2c0.1-0.9-0.5-1.6-1.3-1.8h-0.8L197.6,141.7L197.6,141.7z"/>
<path class="st4" d="M204,135.9h2.5v5.7l0,0l0.6-1.6l1.7-4.1h2.7l-2.8,5.5l2.8,7.2h-2.7l-1.8-5.2l-0.6,1v4.2h-2.5v-12.7H204z"/>
<g id="Page-1">
	<g id="xamagon">
		<path id="Logo" class="st4" d="M131.7,134.1c-0.6-0.1-1.2,0.1-1.5,0.6l-4.5,7.7c-0.3,0.5-0.3,1.1,0,1.6l4.5,7.7
			c0.3,0.5,0.9,0.8,1.5,0.7h9.1c0.6,0.1,1.2-0.2,1.5-0.7l4.5-7.7c0.3-0.5,0.3-1.1,0-1.6l-4.5-7.5c-0.3-0.5-0.9-0.7-1.5-0.6h-9.1
			V134.1z M131.8,137.8v-0.3h1.6l0.2,0.5l2.6,4.9l0,0l2.6-5l0.2-0.3h1.6c0.2,0.1,0.3,0.4,0.2,0.6l-2.6,4.8l2.6,4
			c0.1,0.1,0-0.3-0.2-0.3H139c0,0.2-0.1,0.4-0.2,0.6l-2.6-4.3l0,0l-2.6,4.1c0-0.2-0.1-0.4-0.2-0.6h-1.6c-0.1,0.1-0.1,0.2-0.2,0.3
			l2.6-4.3l-2.6-4.5c-0.1-0.1,0-0.2,0.1-0.3c0,0,0,0,0,0h0.1v0.5L131.8,137.8z"/>
	</g>
</g>
<g>
	<path class="st6" d="M158.4,135.9H155l-1.5,5.5c-0.2,0.8-0.4,1.2-0.7,1.5c-0.3,0.3-0.7,0.4-1.1,0.4c-0.9,0-1.4-0.4-1.4-1.3
		c0-0.2,0-0.5,0.1-0.8l1.4-5.3h-3.5l-1.4,5.1c-0.1,0.6-0.2,1.1-0.2,1.6c0,2.3,1.5,3.7,4.4,3.7c1.6,0,3.1-0.4,4-1.3
		c0.7-0.7,1.2-1.7,1.6-3.1L158.4,135.9z"/>
	<path class="st6" d="M162.9,135.9h-3.4l-2.7,10.2h3.4l0.7-2.8h1.4c3.2,0,5.2-1.7,5.2-4.3c0-0.8-0.3-1.5-0.8-2.1
		C165.9,136.2,164.8,135.9,162.9,135.9z M162.1,140.9h-0.6l0.6-2.3h0.6c0.4,0,0.8,0.1,1,0.3c0.2,0.2,0.2,0.4,0.2,0.6
		C164,140.3,163.4,140.9,162.1,140.9z"/>
	<polygon class="st6" points="180.8,135.9 178,140.8 177.7,135.8 174.8,135.8 171.8,140.8 171.7,135.9 168.2,135.9 168.8,146.1 
		171.7,146.1 174.9,141.1 175.3,146.1 178.3,146.1 184.4,135.9 	"/>
	<path class="st6" d="M187.3,135.8l-7.1,10.3h3.7l0.9-1.4h3.6l0.2,1.4h3.6l-1.5-10.3H187.3z M186.3,142.3l1.6-2.5l0.3,2.5H186.3z"/>
	<path class="st6" d="M203.8,139.1c0-0.8-0.2-1.6-0.8-2.1c-0.7-0.7-1.9-1.1-3.8-1.1h-4l-2.7,10.2h3.4l0.8-2.9h0.8l1.1,2.9h3.7
		l-1.4-3.4C202.9,142,203.8,140.7,203.8,139.1z M198.5,140.7h-1.2l0.5-2h1.2c0.5,0,0.8,0.1,1,0.3c0.1,0.1,0.2,0.3,0.2,0.5
		C200.3,140.2,199.7,140.7,198.5,140.7z"/>
	<path class="st6" d="M213.2,137.2c-0.8-0.8-2-1.3-4-1.3h-3.6l-2.7,10.2h4.4c2.4,0,4.1-0.7,5.4-1.9c1.1-1.1,1.7-2.5,1.7-4
		C214.3,138.9,214,137.9,213.2,137.2z M210.1,142.3c-0.5,0.5-1.4,0.8-2.4,0.8h-0.6l1.1-4.3h0.6c0.8,0,1.3,0.2,1.6,0.5
		c0.3,0.3,0.4,0.6,0.4,1.2C210.9,141.1,210.6,141.8,210.1,142.3z"/>
	<path class="st6" d="M220.2,139.7c-1.4-0.5-1.6-0.6-1.6-0.9c0-0.3,0.3-0.4,0.7-0.4c1.1,0,2.2,0.5,2.9,1.1l2-2.3
		c-1.1-0.9-2.7-1.5-4.6-1.5c-2.8,0-4.6,1.6-4.6,3.6c0,1.5,0.9,2.2,2.8,2.9c1.5,0.6,1.7,0.7,1.7,1c0,0.3-0.3,0.5-0.7,0.5
		c-1.1,0-2.3-0.5-3.4-1.4l-2,2.3c1.2,1.1,3,1.9,5,1.9c2.9,0,4.6-1.6,4.6-3.7C223,141,221.9,140.3,220.2,139.7z"/>
</g>
<polygon class="st7" points="129.8,129.4 138.2,150.7 144.6,135.8 "/>
<polygon class="st6" points="137.9,134.5 121.7,134.6 137.9,150.7 "/>
</svg>
